<?xml version="1.0" encoding="UTF-8"?>
<svg width="150px" height="163px" viewBox="0 0 150 163" version="1.1" xmlns="http://www.w3.org/2000/svg" xmlns:xlink="http://www.w3.org/1999/xlink">
    <title>Zenoh - icon - light</title>
    <defs>
        <path d="M38.458278,-1.55376046e-15 L111.541722,1.55376046e-15 C124.914503,-9.02779573e-16 129.763797,1.39238417 134.652686,4.00699056 C139.541574,6.62159695 143.378403,10.4584256 145.993009,15.3473144 C148.607616,20.2362033 150,25.0854969 150,38.458278 L150,124.541722 C150,137.914503 148.607616,142.763797 145.993009,147.652686 C143.378403,152.541574 139.541574,156.378403 134.652686,158.993009 C129.763797,161.607616 124.914503,163 111.541722,163 L38.458278,163 C25.0854969,163 20.2362033,161.607616 15.3473144,158.993009 C10.4584256,156.378403 6.62159695,152.541574 4.00699056,147.652686 C1.39238417,142.763797 6.01853049e-16,137.914503 -1.03584031e-15,124.541722 L1.03584031e-15,38.458278 C-6.01853049e-16,25.0854969 1.39238417,20.2362033 4.00699056,15.3473144 C6.62159695,10.4584256 10.4584256,6.62159695 15.3473144,4.00699056 C20.2362033,1.39238417 25.0854969,9.02779573e-16 38.458278,-1.55376046e-15 Z" id="path-1"></path>
        <linearGradient x1="0.15443757%" y1="0%" x2="83.2965761%" y2="83.9079026%" id="linearGradient-3">
            <stop stop-color="#1450FF" offset="0%"></stop>
            <stop stop-color="#14B4FF" offset="100%"></stop>
        </linearGradient>
    </defs>
    <g id="DEF" stroke="none" stroke-width="1" fill="none" fill-rule="evenodd">
        <g id="Logo" transform="translate(-481.000000, -819.000000)">
            <g id="Zenoh---icon---light" transform="translate(481.000000, 819.000000)">
                <mask id="mask-2" fill="white">
                    <use xlink:href="#path-1"></use>
                </mask>
                <g id="Mask"></g>
                <path d="M44.636,12.7688056 L42.5680195,14.8407814 L42.2346902,15.1838394 C40.9097128,16.5845756 39.6845503,18.3275013 38.549797,20.4176404 L38.549797,20.4176404 L38.2969658,20.8919364 L38.0471391,21.3778738 C37.8815842,21.7057153 37.7180166,22.0413262 37.5564048,22.3847231 L37.5564048,22.3847231 L37.3154502,22.9056601 L37.0774059,23.4382888 C36.9196746,23.7972746 36.7638677,24.1640633 36.609954,24.5386716 L36.609954,24.5386716 L36.3804994,25.1064508 L36.153861,25.6859719 L36.153861,25.6859719 L35.9300151,26.2772477 L35.7089384,26.8802905 L35.5994311,27.1862285 L35.3824638,27.8069456 L35.2749981,28.1217278 L35.2749981,28.1217278 L35.1682069,28.4394612 L34.9566366,29.083788 L34.9041611,29.2467166 L34.9041611,29.2467166 L34.8518517,29.4103844 L34.6442674,30.0724514 L34.5927828,30.2398181 L34.5927828,30.2398181 L34.5414621,30.4079251 L34.3378108,31.0877606 L34.287304,31.2595724 L34.287304,31.2595724 L34.2369589,31.4321256 L34.0371876,32.129758 L33.8399736,32.8392706 L33.6452934,33.560676 L33.5970164,33.7428871 L33.5970164,33.7428871 L33.548896,33.9258424 L33.3579723,34.6651107 L33.3106289,34.8517904 L33.3106289,34.8517904 L33.2634399,35.0392156 L33.0762197,35.796375 L32.8914391,36.5654774 L32.8456223,36.7596206 L32.8456223,36.7596206 L32.7999562,36.9545112 L32.6187909,37.7415519 L32.4400063,38.5405672 L32.3956794,38.7421935 L32.3956794,38.7421935 L32.3514994,38.9445692 L32.1762418,39.7615698 L32.1327911,39.9676954 L32.1327911,39.9676954 L32.0894852,40.1745716 L31.9177017,41.0095859 L31.7482048,41.8566251 L31.5665383,42.7908668 L29.3185,57.1045837 L29.2465432,57.0889329 L28.5417777,56.9231677 C25.0146616,56.0610261 21.4381186,54.6989832 17.8080661,52.8292313 L17.8080661,52.8292313 L5.14851929,46.3086063 L11.7657094,58.9321393 L11.9871902,59.3502867 L12.3502877,60.0176408 C15.6577953,65.9979158 20.0350508,71.278374 25.4597195,75.8437275 L25.4597195,75.8437275 L25.692,76.0376221 L20.970553,110.323817 L21.0202704,110.846651 L21.0623486,111.264689 C22.3886098,123.744516 29.4634092,130.700461 41.25,130.700461 L41.25,130.700461 L45.75,130.700461 L45.75,126.193548 L45.7523606,125.887999 L45.7653546,125.419097 C45.883606,122.467362 46.6852341,119.855753 48.1825473,117.505048 L48.1825473,117.505048 L48.2715,117.367512 L86.714733,89.5146939 L83.7639096,85.8204988 L83.5570844,85.5518112 C82.3498809,83.9232391 81.75,81.9958965 81.75,79.6221198 C81.75,75.8715834 85.9861573,73.0431404 92.6262953,73.5973353 C98.7026832,74.1044787 102.75,79.2180488 102.75,87.8847926 C102.75,104.784666 96.4380612,114.126233 75.3390991,128.797539 L75.3390991,128.797539 L74.6952017,129.243769 L74.0409767,129.697909 L74.0409767,129.697909 L73.393698,130.151768 L72.541467,130.756485 L71.910401,131.209706 L71.910401,131.209706 L71.2862855,131.662659 L70.4649452,132.266188 L69.8152538,132.749819 C58.6228335,141.130226 51.0133156,149.380027 47.0225101,157.613614 C46.2010655,159.308369 45.6911615,161.133044 45.5128275,163.000381 L38.458278,163 C25.0854969,163 20.2362033,161.607616 15.3473144,158.993009 C10.4584256,156.378403 6.62159695,152.541574 4.00699056,147.652686 C1.43140814,142.836765 0.041835977,138.059267 0.000929964975,125.134835 L1.03584031e-15,51.2278633 C-6.01853049e-16,37.8550822 1.39238417,33.0057886 4.00699056,28.1168997 C6.62159695,23.2280108 10.4584256,19.3911822 15.3473144,16.7765758 C20.2362033,14.1619694 25.0854969,12.7695853 38.458278,12.7695853 L44.636,12.7688056 Z M70.0594211,12.7675831 C70.8427867,19.3047669 71.0618338,26.6897287 70.7165625,34.9224683 L70.7165625,34.9224683 L70.6640625,36.0905098 L70.635,36.6787558 L70.635,36.6787558 L70.6040625,37.2698185 L70.5365625,38.4603946 L70.5185156,38.7597991 L70.5185156,38.7597991 L70.5,39.0599078 C87.5,23.5360983 102.5,15.7741935 115.5,15.7741935 C108,23.2857143 108.272452,33.9711351 112.5,33.0506912 C124,30.546851 136.5,32.5499232 150,39.0599078 L149.345659,38.7465004 C149.778282,41.9124521 150,45.8915338 150,51.2278633 L150,124.541722 C150,137.914503 148.607616,142.763797 145.993009,147.652686 C143.378403,152.541574 139.541574,156.378403 134.652686,158.993009 C129.763797,161.607616 124.914503,163 111.541722,163 L50.0417552,162.999754 C50.2007856,161.816071 50.5471649,160.661996 51.0707286,159.581811 C53.4553702,154.661964 57.3499496,149.639223 62.754467,144.513588 L62.754467,144.513588 L63.3611826,143.94365 L63.9803258,143.372864 L64.6118964,142.801232 L65.3861854,142.114156 C66.4305011,141.197241 67.5225383,140.277074 68.662297,139.353656 L68.662297,139.353656 L69.3808599,138.776095 L69.7448016,138.486998 L69.7448016,138.486998 L70.1118503,138.197688 L70.8552681,137.618435 L71.4842762,137.135076 C71.9064917,136.812641 72.3344606,136.489814 72.768183,136.166595 L72.768183,136.166595 L73.555097,135.584377 L74.153438,135.147158 L74.153438,135.147158 L74.7587695,134.709463 L75.5767522,134.125128 L75.7831897,133.978912 L75.7831897,133.978912 L75.9904038,133.832643 L76.8270277,133.247037 L77.25,132.953917 L77.8984553,132.504564 C99.164175,117.719652 107.25,107.219447 107.25,87.8847926 C107.25,76.6175115 101.235622,69.7933468 93,69.1059908 C84,68.3548387 77.25,72.8617512 77.25,79.6221198 C77.25,83.1274962 78.25,86.1321045 80.25,88.6359447 L80.25,88.6359447 L45,114.175115 L44.736926,114.552607 C42.4123087,117.967283 41.25,121.847597 41.25,126.193548 C31.75,126.193548 26.5,120.935484 25.5,110.419355 L25.5,110.419355 L30.5,74.1136713 L29.8915193,73.6423448 C23.8509365,68.9004205 19.1370968,63.2986968 15.75,56.8371736 C21.5833333,59.8417819 27.3527952,61.6613272 33.0583855,62.2958096 L33.0583855,62.2958096 L36,43.5668203 L36.160593,42.7418792 L36.3232232,41.9291795 L36.4878904,41.1287214 L36.5293756,40.9305196 L36.5293756,40.9305196 L36.570988,40.7330829 L36.738711,39.9509871 L36.908471,39.1811327 L37.0802682,38.4235198 L37.1669307,38.049304 L37.3417836,37.3100533 L37.3858151,37.1271534 L37.3858151,37.1271534 L37.429974,36.9450186 L37.6078825,36.2241302 L37.7878282,35.5154834 L37.969811,34.819078 L38.1538309,34.1349141 L38.339888,33.4629918 L38.5279821,32.8033109 L38.7181134,32.1558716 L38.7659645,31.9959245 L38.7659645,31.9959245 L38.813943,31.8367424 L39.0071299,31.2076653 L39.1044873,30.8977173 L39.1044873,30.8977173 L39.202354,30.5908297 L39.3996152,29.9862356 L39.5989135,29.393883 L39.800249,28.8137719 C39.9351517,28.4311117 40.0714124,28.0566124 40.2090312,27.6902742 L40.2090312,27.6902742 L40.416478,27.1468876 L40.625962,26.6157425 L40.7314679,26.3547605 L40.7314679,26.3547605 L40.837483,26.0968389 L41.0510412,25.5901768 L41.2666365,25.0957562 C41.4110457,24.7702229 41.556813,24.4528507 41.7039384,24.1436394 L41.7039384,24.1436394 L41.9256451,23.6859433 L42.0372623,23.4616859 L42.0372623,23.4616859 L42.1493889,23.2404887 L42.3751698,22.8072756 L42.6205966,22.3544287 C43.6070292,20.5714352 44.6501637,19.1291756 45.75,18.0276498 C45.4877049,22.7562136 45.6382021,28.0360127 46.2014915,33.8670468 L46.2014915,33.8670468 L46.3119457,34.9668255 L46.4216944,35.9863054 C46.8390106,39.7443013 47.4202723,43.7212271 48.1654797,47.9170829 L48.1654797,47.9170829 L48.3920317,49.1718965 L48.5682948,50.1214851 L48.5682948,50.1214851 L48.75,51.078341 C56.791194,39.189773 62.3397947,26.4201149 65.3958023,12.7693667 Z M55.5,59.3410138 C54.8493151,62.5994361 52.5050666,67.1299821 48.4672671,72.9331549 C49.3254255,73.6214254 49.875,74.6796138 49.875,75.8663594 C49.875,77.9406086 48.1960678,79.6221198 46.125,79.6221198 C45.3413993,79.6221198 44.6139341,79.3814062 44.0134198,78.9679649 C42.9192012,80.380157 41.7480613,81.8501288 40.5,83.3778802 C48.0409322,84.7516633 53.0409322,83.2493592 55.5,78.8709677 C58.5613983,73.4201217 58.5,65.3502304 55.5,59.3410138 Z M60.7791378,12.7695859 C58.7230358,21.5634551 55.5825965,29.9704262 51.3545208,37.9988304 L51.3545208,37.9988304 L51.225,38.2426544 L51.1985324,38.0360885 L51.0825097,37.1058313 C50.21849,30.0093938 49.9406068,23.7303772 50.2430716,18.2776483 L50.2430716,18.2776483 L50.548,12.7688056 Z M134.652686,16.7765758 C139.541574,19.3911822 143.378403,23.2280108 145.993009,28.1168997 C146.860657,29.7392604 147.593712,31.3572609 148.185954,33.2838272 C136.235516,28.1652093 124.893644,26.4231827 114.220721,28.1403626 L114.220721,28.1403626 L114.067,28.1651982 L114.080847,28.0126453 L114.117865,27.687412 C114.486251,24.850651 116.088299,21.5587276 118.681981,18.9610619 L118.681981,18.9610619 L124.188209,13.4467849 C128.858781,14.1017157 131.748748,15.2235331 134.652686,16.7765758 Z M104.599284,12.7685087 C95.6146605,15.1732145 86.044563,20.4582419 75.8507047,28.5614153 L75.8507047,28.5614153 L75.369,28.9458955 L75.3709492,28.7729415 L75.3749998,27.7925312 C75.3812431,22.4045342 75.1206525,17.3969641 74.5903313,12.7678396 Z" id="background-copy" fill="url(#linearGradient-3)" mask="url(#mask-2)"></path>
                <path d="M67.5,0 C70.5,10.015361 71.5,23.0353303 70.5,39.0599078 C87.5,23.5360983 102.5,15.7741935 115.5,15.7741935 C108,23.2857143 108.272452,33.9711351 112.5,33.0506912 C124,30.546851 136.5,32.5499232 150,39.0599078 L150,153.269585 C150,165.695992 139.926407,175.769585 127.5,175.769585 L61.1792721,175.769585 C54.9660687,175.769585 49.9292721,170.732789 49.9292721,164.519585 C49.9292721,162.825588 50.3118282,161.153461 51.0483941,159.627979 C55.1904226,151.049532 63.9242912,142.158178 77.25,132.953917 C99,117.930876 107.25,107.414747 107.25,87.8847926 C107.25,76.6175115 101.235622,69.7933468 93,69.1059908 C84,68.3548387 77.25,72.8617512 77.25,79.6221198 C77.25,83.1274962 78.25,86.1321045 80.25,88.6359447 L45,114.175115 C42.5,117.680492 41.25,121.686636 41.25,126.193548 C31.75,126.193548 26.5,120.935484 25.5,110.419355 L30.5,74.1136713 C24.1666667,69.2729135 19.25,63.5140809 15.75,56.8371736 C21.5833333,59.8417819 27.3527952,61.6613272 33.0583855,62.2958096 L36,43.5668203 C38.5,30.546851 41.75,22.0337942 45.75,18.0276498 C45.25,27.0414747 46.25,38.0583717 48.75,51.078341 C59.25,35.5545315 65.5,18.5284178 67.5,0 Z M55.5,59.3410138 C54.8493151,62.5994361 52.5050666,67.1299821 48.4672671,72.9331549 C49.3254255,73.6214254 49.875,74.6796138 49.875,75.8663594 C49.875,77.9406086 48.1960678,79.6221198 46.125,79.6221198 C45.3413993,79.6221198 44.6139341,79.3814062 44.0134198,78.9679649 C42.9192012,80.380157 41.7480613,81.8501288 40.5,83.3778802 C48.0409322,84.7516633 53.0409322,83.2493592 55.5,78.8709677 C58.5613983,73.4201217 58.5,65.3502304 55.5,59.3410138 Z" id="dragon-copy" fill="#FFFFFF" fill-rule="nonzero" mask="url(#mask-2)"></path>
            </g>
        </g>
    </g>
</svg>